<svg xmlns="http://www.w3.org/2000/svg" viewBox="0 0 331.882 297.845" fill="none">
  <path d="M12.7646 285.08V250.531C12.7646 229.393 22.2956 208.663 41.5276 199.898C64.9806 189.192 93.1309 182.963 123.392 182.963C144.581 182.963 164.732 186.027 182.96 191.524" stroke="currentColor" stroke-width="25.5293" stroke-linecap="round" stroke-linejoin="round"/>
  <path d="M123.392 131.901C156.29 131.901 182.96 105.232 182.96 72.333C182.96 39.4343 156.29 12.7646 123.392 12.7646C90.4929 12.7646 63.8232 39.4343 63.8232 72.333C63.8232 105.232 90.4929 131.901 123.392 131.901Z" stroke="currentColor" stroke-width="25.5293" stroke-linecap="round" stroke-linejoin="round"/>
  <path d="M208.49 15.2278C220.777 18.9046 231.55 26.4465 239.209 36.7334C246.868 47.0202 251.005 59.5032 251.005 72.3283C251.005 85.1534 246.868 97.6364 239.209 107.923C231.55 118.21 220.777 125.752 208.49 129.429M268.058 182.955V285.072M217 234.014H319.117" stroke="currentColor" stroke-width="25.5293" stroke-linecap="round" stroke-linejoin="round"/>
</svg>
