<svg xmlns="http://www.w3.org/2000/svg" viewBox="0 0 278.252 338.773" fill="none">
  <path d="M217.771 0.0790646L237.04 36.3677L278.252 41.3756L248.011 68.6284L254.06 108.945L217.771 86.2647L181.482 108.945L187.53 68.6284L157.29 41.3756L199.627 36.3677L217.771 0.0790646Z" fill="currentColor"/>
  <path d="M214.347 136.149L190.904 130.125C186.702 146.313 177.797 160.892 165.312 172.021C152.828 183.149 137.326 190.328 120.764 192.65C104.202 194.972 87.3228 192.333 72.2597 185.067C57.1966 177.801 44.625 166.233 36.1333 151.825C27.6416 137.417 23.6107 120.815 24.5498 104.118C25.489 87.4199 31.356 71.3751 41.4098 58.0103C51.4636 44.6455 65.253 34.5603 81.0359 29.0288C96.8188 23.4974 113.887 22.7679 130.084 26.9325L136.12 3.50214C112.508 -2.6397 87.5169 -0.662824 65.1641 9.11492C42.8114 18.8927 24.396 35.9032 12.8789 57.4115C1.36183 78.9198 -2.58782 103.676 1.66497 127.701C5.91777 151.725 18.1259 173.621 36.3266 189.869V338.773L108.904 290.388L181.481 338.773V190.086C197.548 175.769 208.99 156.993 214.347 136.149ZM157.289 293.57L108.904 261.309L60.5191 293.57V206.32C75.5298 213.865 92.0951 217.8 108.895 217.813C125.696 217.825 142.267 213.915 157.289 206.392V293.57Z" fill="currentColor"/>
</svg>
