<svg width="31" height="31" viewBox="0 0 31 31" fill="none" xmlns="http://www.w3.org/2000/svg">
<path d="M28.2029 23.018C27.1341 21.9411 24.5455 20.3695 23.2895 19.7361C21.654 18.9123 21.5194 18.845 20.2338 19.8001C19.3764 20.4375 18.8063 21.0069 17.8027 20.7928C16.7992 20.5788 14.6185 19.372 12.709 17.4686C10.7995 15.5652 9.52274 13.3212 9.30803 12.321C9.09333 11.3208 9.67216 10.7575 10.3035 9.89799C11.1933 8.68648 11.126 8.48457 10.3654 6.84903C9.77244 5.57694 8.15508 3.01258 7.07414 1.94914C5.91782 0.806954 5.91782 1.00887 5.17274 1.31848C4.56614 1.57365 3.9842 1.88388 3.43423 2.24529C2.35733 2.96075 1.75965 3.55506 1.34168 4.44822C0.923706 5.34137 0.735922 7.43526 2.89443 11.3565C5.05294 15.2778 6.56733 17.2828 9.70177 20.4085C12.8362 23.5342 15.2465 25.2149 18.7699 27.191C23.1287 29.6322 24.8006 29.1563 25.6964 28.739C26.5923 28.3217 27.1893 27.7294 27.9061 26.6525C28.2684 26.1035 28.5793 25.5222 28.8349 24.916C29.1452 24.1736 29.3471 24.1736 28.2029 23.018Z" stroke="white" stroke-width="2.1538" stroke-miterlimit="10"/>
</svg>
