<svg xmlns="http://www.w3.org/2000/svg" viewBox="0 0 335.585 311.614" fill="none">
  <path d="M47.9401 23.9703V287.644H191.762V23.9703H47.9401ZM35.9549 0H203.747C206.926 0 209.974 1.26272 212.222 3.51037C214.47 5.75803 215.732 8.8065 215.732 11.9852V299.629C215.732 302.808 214.47 305.856 212.222 308.104C209.974 310.352 206.926 311.614 203.747 311.614H35.9549C32.7762 311.614 29.7278 310.352 27.4801 308.104C25.2325 305.856 23.9697 302.808 23.9697 299.629V11.9852C23.9697 8.8065 25.2325 5.75803 27.4801 3.51037C29.7278 1.26272 32.7762 0 35.9549 0Z" fill="currentColor"/>
  <path d="M71.911 71.8988H167.792V95.8691H71.911V71.8988ZM71.911 143.81H167.792V167.78H71.911V143.81ZM71.911 215.721H167.792V239.691H71.911V215.721ZM215.733 167.78H263.674V191.75H215.733V167.78ZM215.733 215.721H263.674V239.691H215.733V215.721ZM0 287.632H335.585V311.602H0V287.632Z" fill="currentColor"/>
  <path d="M215.732 119.848V287.641H287.643V119.848H215.732ZM203.747 95.8778H299.628C302.807 95.8778 305.855 97.1405 308.103 99.3882C310.35 101.636 311.613 104.684 311.613 107.863V299.626C311.613 302.804 310.35 305.853 308.103 308.1C305.855 310.348 302.807 311.611 299.628 311.611H203.747C200.568 311.611 197.519 310.348 195.272 308.1C193.024 305.853 191.761 302.804 191.761 299.626V107.863C191.761 104.684 193.024 101.636 195.272 99.3882C197.519 97.1405 200.568 95.8778 203.747 95.8778Z" fill="currentColor"/>
</svg>
