<svg xmlns="http://www.w3.org/2000/svg" viewBox="0 0 346.152 346.154" fill="none">
  <path d="M334.077 334.079H12.0751" stroke="currentColor" stroke-width="24.1501" stroke-linecap="round"/>
  <path d="M253.576 334.077V76.4754C253.576 46.1107 253.576 30.9444 244.141 21.5097C234.707 12.0751 219.54 12.0751 189.176 12.0751H156.976C126.611 12.0751 111.445 12.0751 102.01 21.5097C92.5752 30.9444 92.5752 46.1107 92.5752 76.4754V334.077" stroke="currentColor" stroke-width="24.1501"/>
  <path d="M173.077 334.075V285.775M140.877 173.075H205.277M68.4262 156.974H92.5763M68.4262 205.275H92.5763M253.577 156.974H277.727M253.577 205.275H277.727M68.4262 108.674H92.5763M253.577 108.674H277.727" stroke="currentColor" stroke-width="24.1501" stroke-linecap="round"/>
  <path d="M173.075 124.779V60.379M205.275 92.5792H140.875" stroke="currentColor" stroke-width="24.1501" stroke-linecap="round" stroke-linejoin="round"/>
  <path d="M322.001 189.174V326.024H313.951V189.174H322.001ZM32.1998 261.624V326.024H24.149V261.624H32.1998ZM32.1998 124.773V181.123H24.149V124.773H32.1998ZM319.373 79.8008C320.33 82.8221 320.923 86.1404 321.299 89.8457V89.8466C321.816 95.0245 321.952 101.207 321.988 108.673H313.939C313.906 101.293 313.781 95.4735 313.298 90.6865L313.297 90.6826L313.17 89.5175C312.95 87.6675 312.671 86.0143 312.324 84.5185L317.023 81.3789L317.02 81.375L319.373 79.8008ZM33.8258 84.5185C33.4088 86.3169 33.0901 88.3432 32.8541 90.665C32.3572 95.4646 32.2374 101.292 32.2086 108.673H24.1607C24.1927 101.203 24.3213 95.0322 24.8482 89.8633L24.8492 89.8603C25.2255 86.1529 25.8159 82.83 26.7721 79.8047L33.8258 84.5185ZM269.675 56.3584C276.521 56.3876 282.275 56.4989 287.167 56.9228L288.485 57.0468L288.491 57.0478C292.205 57.4239 295.525 58.0155 298.548 58.9716L296.969 61.3359L296.964 61.333L293.836 66.0254C292.034 65.6076 290 65.2875 287.666 65.0508C282.869 64.5553 277.047 64.435 269.675 64.4062V56.3584ZM76.4742 64.4091C69.094 64.4418 63.2749 64.5681 58.4879 65.0508H58.484C56.155 65.2869 54.1227 65.6064 52.3199 66.0244L47.6061 58.9707C50.6313 58.0146 53.9535 57.4231 57.6607 57.0468C62.836 56.5312 69.0144 56.396 76.4742 56.3603V64.4091Z" fill="currentColor" stroke="currentColor" stroke-width="16.1001"/>
  <path d="M140.875 221.381H148.925M205.275 221.381H181.125" stroke="currentColor" stroke-width="24.1501" stroke-linecap="round"/>
</svg>
