<svg xmlns="http://www.w3.org/2000/svg" viewBox="0 0 349.325 314.393" fill="none">
  <path d="M227.061 0.000211856C236.326 0.000211856 245.211 3.68059 251.762 10.2317C258.313 16.7828 261.994 25.668 261.994 34.9327V104.798H296.926C306.191 104.798 315.076 108.478 321.627 115.029C328.178 121.58 331.859 130.466 331.859 139.73V279.46C336.491 279.46 340.934 281.3 344.209 284.576C347.485 287.852 349.325 292.294 349.325 296.927C349.325 301.559 347.485 306.002 344.209 309.277C340.934 312.553 336.491 314.393 331.859 314.393H17.4663C12.8339 314.393 8.39131 312.553 5.11575 309.277C1.84019 306.002 0 301.559 0 296.927C0 292.294 1.84019 287.852 5.11575 284.576C8.39131 281.3 12.8339 279.46 17.4663 279.46V104.798C17.4663 95.5331 21.1466 86.6478 27.6977 80.0967C34.2489 73.5456 43.1341 69.8652 52.3988 69.8652H87.3313V34.9327C87.3313 25.668 91.0117 16.7828 97.5628 10.2317C104.114 3.68059 112.999 0.000211856 122.264 0.000211856H227.061ZM87.3313 104.798H52.3988V279.46H87.3313V104.798ZM296.926 139.73H261.994V279.46H296.926V139.73ZM227.061 34.9327H122.264V279.46H227.061V34.9327ZM192.129 209.595V244.528H157.196V209.595H192.129ZM192.129 139.73V174.663H157.196V139.73H192.129ZM192.129 69.8652V104.798H157.196V69.8652H192.129Z" fill="currentColor"/>
</svg>
