<svg xmlns="http://www.w3.org/2000/svg" viewBox="0 0 316.917 369.736" fill="none">
  <path d="M158.458 0L0 52.8195V211.278C0 298.801 70.9349 369.736 158.458 369.736C245.982 369.736 316.917 298.801 316.917 211.278V52.8195L158.458 0ZM287.206 211.278C287.206 282.378 229.558 340.025 158.458 340.025C87.3585 340.025 29.711 282.378 29.711 211.278V75.1027L158.458 29.711L287.206 75.1027V211.278Z" fill="currentColor"/>
  <path d="M103.327 169.649C101.951 168.265 100.314 167.168 98.5118 166.419C96.7096 165.67 94.7771 165.284 92.8255 165.284C90.8738 165.284 88.9414 165.67 87.1391 166.419C85.3369 167.168 83.7004 168.265 82.3235 169.649C80.9403 171.025 79.8427 172.662 79.0938 174.464C78.3449 176.266 77.9594 178.199 77.9594 180.151C77.9594 182.102 78.3449 184.035 79.0938 185.837C79.8427 187.639 80.9403 189.276 82.3235 190.653L135.721 244.05L136.587 244.916C137.89 246.221 139.437 247.256 141.139 247.963C142.842 248.669 144.668 249.033 146.512 249.033C148.355 249.033 150.181 248.669 151.884 247.963C153.586 247.256 155.133 246.221 156.436 244.916L248.664 152.689C249.968 151.386 251.004 149.839 251.71 148.136C252.416 146.433 252.78 144.608 252.78 142.764C252.78 140.921 252.416 139.095 251.71 137.392C251.004 135.689 249.968 134.142 248.664 132.84L247.508 131.685C246.206 130.38 244.659 129.345 242.956 128.638C241.253 127.932 239.427 127.568 237.584 127.568C235.74 127.568 233.915 127.932 232.212 128.638C230.509 129.345 228.962 130.38 227.66 131.685L146.491 212.812L103.327 169.649Z" fill="currentColor"/>
</svg>
