<svg xmlns="http://www.w3.org/2000/svg" viewBox="0 0 360.63 295.06" fill="none">
  <path d="M327.845 262.276H360.63V295.061H0V262.276H32.7845V16.3923C32.7845 12.0448 34.5115 7.87532 37.5857 4.80118C40.6598 1.72703 44.8293 0 49.1768 0H213.099C217.447 0 221.616 1.72703 224.69 4.80118C227.764 7.87532 229.492 12.0448 229.492 16.3923V262.276H295.061V131.138H262.276V98.3535H311.453C315.8 98.3535 319.97 100.081 323.044 103.155C326.118 106.229 327.845 110.398 327.845 114.746V262.276ZM65.569 32.7845V262.276H196.707V32.7845H65.569ZM98.3535 131.138H163.923V163.923H98.3535V131.138ZM98.3535 65.569H163.923V98.3535H98.3535V65.569Z" fill="currentColor"/>
</svg>
