<svg xmlns="http://www.w3.org/2000/svg" viewBox="0 0 247.196 309.146" fill="none">
  <path d="M185.395 123.751C185.395 89.6076 157.74 61.9529 123.596 61.9529C89.4529 61.9529 61.7981 89.6076 61.7981 123.751C61.7981 157.895 89.4529 185.55 123.596 185.55C157.74 185.55 185.395 157.895 185.395 123.751ZM92.6973 123.751C92.6973 106.757 106.602 92.8521 123.596 92.8521C140.591 92.8521 154.496 106.757 154.496 123.751C154.496 140.746 140.591 154.65 123.596 154.65C106.602 154.65 92.6973 140.746 92.6973 123.751Z" fill="currentColor"/>
  <path d="M114.637 306.211C117.264 308.065 120.508 309.146 123.598 309.146C126.688 309.146 129.933 308.219 132.559 306.211C137.194 302.812 247.658 223.247 247.195 123.597C247.195 55.464 191.731 0 123.598 0C55.4655 0 0.00145442 55.464 0.00145442 123.597C-0.462033 223.092 110.003 302.812 114.637 306.211ZM123.598 31.0537C174.736 31.0537 216.296 72.6131 216.296 123.751C216.605 192.347 148.472 253.991 123.598 274.23C98.7244 253.991 30.5916 192.502 30.9006 123.751C30.9006 72.6131 72.46 31.0537 123.598 31.0537Z" fill="currentColor"/>
</svg>
