<svg xmlns="http://www.w3.org/2000/svg" viewBox="0 0 353.163 353.163" fill="none">
  <path d="M204.345 203.31C194.228 194.688 183.019 188.078 170.718 183.479C158.418 178.881 145.657 176.581 132.436 176.581C122.319 176.581 112.548 177.904 103.121 180.548C93.694 183.192 84.8994 186.871 76.7371 191.584C68.5748 196.297 61.1597 202.046 54.4919 208.828C47.8242 215.611 42.0761 223.084 37.2477 231.246C32.4193 239.408 28.683 248.203 26.0389 257.63C23.3947 267.056 22.0727 276.828 22.0727 286.945H0C0 273.149 2.01183 259.871 6.0355 247.111C10.0592 234.35 15.8647 222.566 23.4522 211.76C31.0397 200.953 40.0067 191.354 50.3533 182.962C60.6999 174.57 72.426 167.959 85.5317 163.131C72.541 154.624 62.4243 143.932 55.1817 131.057C47.9391 118.181 44.2603 103.926 44.1454 88.2907C44.1454 76.1048 46.4446 64.6661 51.0431 53.9746C55.6416 43.2832 61.907 33.9138 69.8394 25.8664C77.7717 17.8191 87.1411 11.4962 97.9475 6.89771C108.754 2.29924 120.25 0 132.436 0C144.622 0 156.061 2.29924 166.752 6.89771C177.444 11.4962 186.813 17.7616 194.86 25.694C202.908 33.6264 209.231 42.9958 213.829 53.8022C218.428 64.6086 220.727 76.1048 220.727 88.2907C220.727 95.8782 219.807 103.293 217.968 110.536C216.128 117.778 213.369 124.619 209.691 131.057C206.012 137.494 201.701 143.415 196.757 148.818C191.814 154.221 186.008 158.992 179.341 163.131C186.813 166.005 193.941 169.511 200.723 173.65C207.506 177.789 213.887 182.445 219.865 187.618L204.345 203.31ZM66.2181 88.2907C66.2181 97.4877 67.9425 106.052 71.3913 113.985C74.8402 121.917 79.5536 128.93 85.5317 135.023C91.5097 141.116 98.5224 145.887 106.57 149.336C114.617 152.784 123.239 154.509 132.436 154.509C141.518 154.509 150.083 152.784 158.13 149.336C166.177 145.887 173.19 141.173 179.168 135.195C185.146 129.217 189.917 122.205 193.481 114.157C197.045 106.11 198.769 97.4877 198.654 88.2907C198.654 79.2088 196.93 70.6441 193.481 62.5968C190.032 54.5494 185.319 47.5367 179.341 41.5587C173.363 35.5807 166.292 30.8098 158.13 27.246C149.968 23.6822 141.403 21.9577 132.436 22.0727C123.239 22.0727 114.674 23.7971 106.742 27.246C98.8098 30.6948 91.7971 35.4083 85.7041 41.3863C79.6111 47.3643 74.8402 54.4345 71.3913 62.5968C67.9425 70.7591 66.2181 79.3237 66.2181 88.2907ZM297.981 132.436C305.569 132.436 312.696 133.873 319.364 136.747C326.032 139.621 331.838 143.587 336.781 148.646C341.724 153.704 345.69 159.567 348.679 166.235C351.668 172.903 353.163 180.03 353.163 187.618C353.163 195.205 351.726 202.333 348.852 209.001C345.978 215.669 342.012 221.532 336.953 226.59C331.895 231.648 326.032 235.614 319.364 238.488C312.696 241.363 305.569 242.8 297.981 242.8C295.337 242.8 292.75 242.627 290.221 242.282L188.997 343.506C185.893 346.61 182.33 348.967 178.306 350.576C174.282 352.186 170.029 353.048 165.545 353.163C160.947 353.163 156.636 352.301 152.612 350.576C148.588 348.852 145.082 346.495 142.093 343.506C139.104 340.517 136.747 337.011 135.023 332.987C133.298 328.963 132.436 324.652 132.436 320.054C132.436 315.685 133.241 311.489 134.85 307.466C136.46 303.442 138.874 299.821 142.093 296.602L243.317 195.378C242.972 192.849 242.8 190.262 242.8 187.618C242.8 180.03 244.237 172.903 247.111 166.235C249.985 159.567 253.893 153.762 258.837 148.818C263.78 143.875 269.643 139.909 276.426 136.92C283.209 133.931 290.394 132.436 297.981 132.436ZM297.981 220.727C302.58 220.727 306.891 219.865 310.914 218.14C314.938 216.416 318.444 214.059 321.433 211.07C324.422 208.081 326.779 204.575 328.504 200.551C330.228 196.527 331.09 192.216 331.09 187.618C331.09 182.904 329.998 178.191 327.814 173.478L302.637 198.654H286.945V182.962L312.122 157.785C307.408 155.601 302.695 154.509 297.981 154.509C293.383 154.509 289.072 155.371 285.048 157.095C281.024 158.82 277.518 161.177 274.529 164.166C271.54 167.155 269.183 170.661 267.459 174.685C265.734 178.708 264.872 183.019 264.872 187.618C264.872 192.331 265.964 197.045 268.149 201.758L157.785 312.294C155.601 314.478 154.509 317.065 154.509 320.054C154.509 323.043 155.601 325.63 157.785 327.814C159.969 329.998 162.556 331.09 165.545 331.09C168.534 331.09 171.121 329.998 173.305 327.814L283.841 217.45C288.554 219.635 293.268 220.727 297.981 220.727Z" fill="currentColor"/>
</svg>
