<svg xmlns="http://www.w3.org/2000/svg" viewBox="0 0 344.795 285.928" fill="none">
  <path fill-rule="evenodd" clip-rule="evenodd" d="M277.518 16.819L344.795 84.0967V285.928H8.4099V93.1208L42.0479 132.365V252.289H311.157V92.5058L269.108 50.4578H232.065L204.991 16.819H277.518ZM277.518 201.831V227.06H75.6868V201.831H277.518ZM176.602 0L218.65 58.8678L109.326 185.012L0 58.8678L42.0479 0H176.602ZM160.311 151.374H277.518V176.602H159.783V151.988L160.311 151.374ZM127.464 67.2769H91.171L109.326 139.398L127.464 67.2769ZM65.1332 67.2769H39.3098L85.3289 130.389L65.1332 67.2769ZM179.325 67.2769H153.517L133.325 130.375L179.325 67.2769ZM203.56 100.915L277.518 100.916V126.145H181.936L203.56 100.915ZM82.9511 25.2289H55.0156L36.9982 50.4578H66.1321L82.9511 25.2289ZM113.94 25.2289H104.68L93.9509 50.4578H124.678L113.94 25.2289ZM163.617 25.2289H135.698L152.518 50.4578H181.635L163.617 25.2289Z" fill="currentColor"/>
</svg>
