<svg xmlns="http://www.w3.org/2000/svg" viewBox="0 0 398.653 367.004" fill="none">
  <path d="M199.095 142.632C184.976 156.75 165.828 164.681 145.862 164.681C125.895 164.681 106.747 156.75 92.6285 142.632C78.5102 128.513 70.5787 109.365 70.5787 89.3985C70.5787 69.4322 78.5102 50.2837 92.6285 36.1654C106.747 22.0471 125.895 14.1155 145.862 14.1155C165.828 14.1155 184.976 22.0471 199.095 36.1654C213.213 50.2837 221.145 69.4322 221.145 89.3985C221.145 109.365 213.213 128.513 199.095 142.632Z" stroke="currentColor" stroke-width="28.2311" stroke-linecap="round" stroke-linejoin="round"/>
  <path d="M14.1156 296.426C14.1159 271.697 21.076 247.468 34.1998 226.509C47.3236 205.55 66.0812 188.708 88.3273 177.909C110.573 167.11 135.41 162.79 159.996 165.443C184.582 168.096 207.924 177.616 227.354 192.912M296.427 202.322H334.068M378.56 272.091L384.131 309.732C384.924 315.083 384.554 320.541 383.047 325.735C381.54 330.929 378.931 335.738 375.398 339.833C371.865 343.929 367.491 347.215 362.574 349.468C357.657 351.72 352.312 352.887 346.904 352.888H283.591C278.182 352.887 272.837 351.72 267.92 349.468C263.003 347.215 258.629 343.929 255.097 339.833C251.564 335.738 248.955 330.929 247.448 325.735C245.941 320.541 245.571 315.083 246.363 309.732L251.934 272.091C253.257 263.162 257.744 255.006 264.577 249.108C271.41 243.211 280.135 239.966 289.162 239.964H341.333C350.359 239.966 359.084 243.211 365.918 249.108C372.751 255.006 377.238 263.162 378.56 272.091Z" stroke="currentColor" stroke-width="28.2311" stroke-linecap="round" stroke-linejoin="round"/>
</svg>
