<svg xmlns="http://www.w3.org/2000/svg" viewBox="0 0 341.916 347.198" fill="none">
  <path fill-rule="evenodd" clip-rule="evenodd" d="M127.613 0C162.852 0 191.419 28.5667 191.419 63.8056C191.419 97.8705 164.725 125.701 131.114 127.517L127.613 127.612C92.374 127.612 63.8065 99.0455 63.8065 63.8056C63.8065 29.7417 90.5008 1.91077 124.112 0.0940007L127.613 0ZM0 328.146H160.476C153.954 316.877 149.51 304.527 147.356 291.685H36.461V262.517L36.5558 258.977C38.3136 226.193 64.3414 200.533 95.7093 200.533H159.516L162.855 200.631C166.11 200.821 169.299 201.288 172.399 202.008C181.617 191.328 192.806 182.523 205.355 176.077C191.742 168.424 176.123 164.073 159.516 164.073H95.7093L91.7647 164.155C40.7354 166.283 0 209.507 0 262.517V328.146ZM100.267 63.8056C100.267 48.7032 112.511 36.4601 127.613 36.4601C142.715 36.4601 154.958 48.7032 154.958 63.8056C154.958 78.9081 142.715 91.1512 127.613 91.1512C112.511 91.1512 100.267 78.9081 100.267 63.8056ZM201.648 347.198L255.225 314.473L308.803 347.198L294.236 286.13L341.916 245.288L279.335 240.271L255.225 182.303L231.115 240.271L168.535 245.288L216.214 286.13L201.648 347.198Z" fill="currentColor"/>
</svg>
