<svg xmlns="http://www.w3.org/2000/svg" viewBox="0 0 371 372.865" fill="none">
  <path d="M316.935 54.2528C299.84 36.9911 279.481 23.3044 257.044 13.9902C234.606 4.67595 210.539 -0.0794792 186.246 0.00100478C84.4538 0.00100478 1.49146 82.9633 1.49146 184.755C1.49146 217.381 10.0673 249.074 26.1005 277.039L0 372.865L97.8769 347.138C124.91 361.866 155.298 369.696 186.246 369.696C288.038 369.696 371 286.734 371 184.942C371 135.537 351.797 89.1156 316.935 54.2528ZM186.246 338.375C158.654 338.375 131.621 330.918 107.944 316.936L102.351 313.58L44.1844 328.867L59.6583 272.192L55.9296 266.413C40.5965 241.935 32.4564 213.639 32.4392 184.755C32.4392 100.115 101.419 31.1352 186.059 31.1352C227.074 31.1352 265.666 47.1683 294.563 76.2518C308.874 90.4926 320.214 107.433 327.927 126.091C335.64 144.749 339.571 164.753 339.493 184.942C339.866 269.582 270.886 338.375 186.246 338.375ZM270.513 223.533C265.852 221.296 243.108 210.11 239.006 208.432C234.718 206.941 231.735 206.195 228.566 210.669C225.396 215.33 216.634 225.77 214.024 228.753C211.414 231.923 208.618 232.295 203.957 229.872C199.296 227.635 184.381 222.601 166.857 206.941C153.061 194.636 143.926 179.535 141.129 174.874C138.519 170.214 140.756 167.79 143.18 165.366C145.231 163.316 147.841 159.96 150.078 157.35C152.315 154.74 153.247 152.689 154.739 149.706C156.23 146.537 155.484 143.927 154.366 141.689C153.247 139.452 143.926 116.708 140.197 107.386C136.468 98.4372 132.553 99.5558 129.757 99.3693H120.808C117.639 99.3693 112.791 100.488 108.504 105.149C104.402 109.81 92.4703 120.995 92.4703 143.74C92.4703 166.485 109.063 188.484 111.3 191.467C113.537 194.636 143.926 241.244 190.161 261.192C201.16 266.04 209.736 268.836 216.448 270.887C227.447 274.429 237.515 273.87 245.531 272.751C254.48 271.446 272.937 261.565 276.665 250.752C280.58 239.939 280.58 230.804 279.275 228.753C277.97 226.703 275.174 225.77 270.513 223.533Z" fill="currentColor"/>
</svg>
